<svg width="82" height="22" viewBox="0 0 82 22" fill="none" xmlns="http://www.w3.org/2000/svg">
<g id="Logo">
<g id="Group 57">
<g id="Vector">
<path d="M16.0017 5.74719L0.120867 20.7238C-0.0527923 20.8876 -0.0373495 21.1509 0.154496 21.2973C0.311082 21.4167 0.538221 21.4202 0.698943 21.3056L5.18069 18.1108C5.32031 18.0113 5.48339 17.9425 5.65718 17.9099L10.6489 16.9713C10.9838 16.9083 11.2704 16.7131 11.4309 16.4386L17.2368 6.50949C17.3517 6.31292 17.3512 6.0771 17.2353 5.8808C17.0964 5.64547 16.8166 5.5079 16.5241 5.53105L16.4946 5.53338C16.3073 5.54821 16.1322 5.62415 16.0017 5.74719Z" fill="#FC000D"/>
<path d="M5.77865 9.33629C5.52981 9.50997 5.36991 9.76857 5.33603 10.0522L4.93643 13.397C4.89521 13.742 5.21127 14.0355 5.59167 14.0054C5.73435 13.9941 5.86797 13.9372 5.96881 13.8448L19.1747 1.74643C19.3245 1.60918 19.4002 1.41888 19.3816 1.22619C19.3533 0.933691 19.115 0.693541 18.7979 0.637765L18.72 0.624068C18.4872 0.583135 18.2464 0.634791 18.0584 0.765965L5.77865 9.33629Z" fill="#FC000D"/>
</g>
<g id="#Name.40">
<path id="Vector_2" d="M76.3753 5.28223V12.12H76.7449C76.8788 12.12 76.9832 12.1012 77.0582 12.0637C77.1332 12.0262 77.2136 11.9566 77.2993 11.8548L79.3482 9.32381C79.4393 9.21668 79.5357 9.13365 79.6375 9.07473C79.7392 9.01045 79.8731 8.97831 80.0392 8.97831H81.8551L79.292 12.0396C79.2009 12.1521 79.1072 12.2566 79.0107 12.353C78.9143 12.4441 78.8099 12.5244 78.6974 12.594C78.8099 12.6744 78.909 12.7681 78.9947 12.8753C79.0804 12.9824 79.1661 13.0976 79.2518 13.2208L81.9997 17.2222H80.2079C80.0526 17.2222 79.9214 17.1954 79.8142 17.1418C79.7071 17.0883 79.6107 16.9972 79.525 16.8686L77.4278 13.743C77.3475 13.6198 77.2671 13.5395 77.1868 13.502C77.1064 13.4645 76.9859 13.4458 76.8252 13.4458H76.3753V17.2222H74.3906V5.28223H76.3753Z" fill="#FC000D"/>
<path id="Vector_3" d="M72.1165 5.28223V17.2222H70.1318V5.28223H72.1165Z" fill="#FC000D"/>
<path id="Vector_4" d="M68.0525 17.2217H67.1606C66.9731 17.2217 66.8258 17.1949 66.7187 17.1414C66.6116 17.0825 66.5312 16.9673 66.4777 16.7959L66.3009 16.2093C66.092 16.3968 65.8857 16.5629 65.6822 16.7075C65.484 16.8468 65.2778 16.9646 65.0635 17.061C64.8492 17.1575 64.6216 17.2298 64.3805 17.278C64.1395 17.3262 63.8717 17.3503 63.577 17.3503C63.2289 17.3503 62.9075 17.3048 62.6128 17.2137C62.3182 17.1173 62.0638 16.9753 61.8495 16.7878C61.6406 16.6004 61.4772 16.3673 61.3594 16.0888C61.2415 15.8103 61.1826 15.4862 61.1826 15.1166C61.1826 14.8059 61.263 14.5006 61.4237 14.2006C61.5897 13.8953 61.8629 13.6221 62.2432 13.381C62.6236 13.1346 63.1298 12.9311 63.7618 12.7704C64.3939 12.6097 65.1787 12.5186 66.1161 12.4972V12.0151C66.1161 11.4633 65.9982 11.0562 65.7625 10.7938C65.5322 10.5259 65.1947 10.392 64.7501 10.392C64.4287 10.392 64.1609 10.4295 63.9466 10.5045C63.7324 10.5795 63.5449 10.6652 63.3842 10.7616C63.2289 10.8527 63.0842 10.9357 62.9503 11.0107C62.8164 11.0857 62.6691 11.1232 62.5084 11.1232C62.3745 11.1232 62.2593 11.0884 62.1629 11.0187C62.0665 10.9491 61.9888 10.8634 61.9299 10.7616L61.5683 10.1269C62.5164 9.25908 63.6601 8.8252 64.9992 8.8252C65.4813 8.8252 65.9099 8.90554 66.2848 9.06624C66.6651 9.22159 66.9865 9.44121 67.249 9.72511C67.5115 10.0037 67.7097 10.3384 67.8436 10.7295C67.9829 11.1205 68.0525 11.549 68.0525 12.0151V17.2217ZM64.1957 15.9843C64.3993 15.9843 64.5868 15.9656 64.7582 15.9281C64.9296 15.8906 65.0903 15.8344 65.2403 15.7594C65.3956 15.6844 65.5429 15.5933 65.6822 15.4862C65.8268 15.3737 65.9715 15.2425 66.1161 15.0925V13.7024C65.5376 13.7292 65.0528 13.7801 64.6618 13.8551C64.2761 13.9247 63.9654 14.0158 63.7297 14.1283C63.494 14.2408 63.3253 14.372 63.2235 14.522C63.1271 14.672 63.0789 14.8353 63.0789 15.0121C63.0789 15.3603 63.1806 15.6094 63.3842 15.7594C63.5931 15.9094 63.8636 15.9843 64.1957 15.9843Z" fill="#FC000D"/>
<path id="Vector_5" d="M47.876 8.97798H49.4508C49.6008 8.97798 49.7267 9.0128 49.8285 9.08244C49.9302 9.15207 49.9945 9.24046 50.0213 9.34759L51.2025 13.7508C51.2667 13.9918 51.3176 14.2275 51.3551 14.4578C51.398 14.6882 51.4381 14.9185 51.4756 15.1488C51.5346 14.9185 51.5962 14.6882 51.6604 14.4578C51.7301 14.2275 51.8024 13.9918 51.8774 13.7508L53.2433 9.33152C53.2755 9.22439 53.3398 9.136 53.4362 9.06637C53.5326 8.99673 53.6451 8.96191 53.7736 8.96191H54.6495C54.7941 8.96191 54.9146 8.99673 55.011 9.06637C55.1074 9.136 55.1717 9.22439 55.2039 9.33152L56.5537 13.8311C56.6234 14.0614 56.685 14.2864 56.7385 14.506C56.7975 14.7203 56.8537 14.9372 56.9073 15.1569C56.9448 14.9265 56.9849 14.6962 57.0278 14.4659C57.076 14.2355 57.1349 13.9972 57.2046 13.7508L58.4259 9.34759C58.4527 9.24046 58.5169 9.15207 58.6187 9.08244C58.7205 9.0128 58.8383 8.97798 58.9723 8.97798H60.4748L57.8634 17.2219H56.2645C56.0931 17.2219 55.9699 17.104 55.8949 16.8683L54.4084 12.1036C54.3602 11.9482 54.3147 11.7929 54.2718 11.6376C54.2343 11.4769 54.2022 11.3188 54.1754 11.1635C54.1432 11.3242 54.1084 11.4849 54.0709 11.6456C54.0334 11.8009 53.9906 11.959 53.9424 12.1197L52.4398 16.8683C52.3648 17.104 52.2202 17.2219 52.0059 17.2219H50.4873L47.876 8.97798Z" fill="#FC000D"/>
<path id="Vector_6" d="M43.2367 19.4892C43.1778 19.6285 43.1001 19.733 43.0037 19.8026C42.9126 19.8776 42.7707 19.9151 42.5778 19.9151H41.0994L42.6421 16.6127L39.3076 8.97949H41.0432C41.2039 8.97949 41.3271 9.01699 41.4128 9.09198C41.4985 9.16697 41.5628 9.25268 41.6056 9.3491L43.3653 13.6237C43.4242 13.763 43.4751 13.9076 43.5179 14.0576C43.5608 14.2076 43.5983 14.3576 43.6304 14.5075C43.6733 14.3522 43.7188 14.2022 43.767 14.0576C43.8206 13.913 43.8768 13.7657 43.9358 13.6157L45.591 9.3491C45.6338 9.24197 45.7034 9.15358 45.7999 9.08395C45.9016 9.01431 46.0141 8.97949 46.1373 8.97949H47.7283L43.2367 19.4892Z" fill="#FC000D"/>
<path id="Vector_7" d="M33.4544 5.28223V12.12H33.824C33.9579 12.12 34.0623 12.1012 34.1373 12.0637C34.2123 12.0262 34.2927 11.9566 34.3784 11.8548L36.4273 9.32381C36.5184 9.21668 36.6148 9.13365 36.7166 9.07473C36.8183 9.01045 36.9523 8.97831 37.1183 8.97831H38.9342L36.3711 12.0396C36.28 12.1521 36.1863 12.2566 36.0898 12.353C35.9934 12.4441 35.889 12.5244 35.7765 12.594C35.889 12.6744 35.9881 12.7681 36.0738 12.8753C36.1595 12.9824 36.2452 13.0976 36.3309 13.2208L39.0788 17.2222H37.287C37.1317 17.2222 37.0005 17.1954 36.8933 17.1418C36.7862 17.0883 36.6898 16.9972 36.6041 16.8686L34.5069 13.743C34.4266 13.6198 34.3462 13.5395 34.2659 13.502C34.1855 13.4645 34.065 13.4458 33.9043 13.4458H33.4544V17.2222H31.4697V5.28223H33.4544Z" fill="#FC000D"/>
<path id="Vector_8" d="M29.3235 10.5861C29.2699 10.6718 29.2137 10.7334 29.1547 10.7709C29.0958 10.8031 29.0208 10.8192 28.9298 10.8192C28.8333 10.8192 28.7289 10.7924 28.6164 10.7388C28.5093 10.6852 28.3834 10.6263 28.2388 10.562C28.0941 10.4924 27.9281 10.4308 27.7406 10.3772C27.5585 10.3237 27.3415 10.2969 27.0898 10.2969C26.6987 10.2969 26.3907 10.3799 26.1657 10.546C25.9408 10.712 25.8283 10.929 25.8283 11.1968C25.8283 11.3736 25.8845 11.5236 25.997 11.6468C26.1148 11.7646 26.2675 11.8691 26.455 11.9601C26.6478 12.0512 26.8648 12.1342 27.1058 12.2092C27.3469 12.2788 27.5933 12.3565 27.845 12.4422C28.0968 12.5279 28.3432 12.627 28.5843 12.7395C28.8253 12.8466 29.0396 12.9859 29.2271 13.1573C29.4199 13.3234 29.5726 13.5243 29.685 13.7599C29.8029 13.9956 29.8618 14.2795 29.8618 14.6117C29.8618 15.008 29.7895 15.375 29.6449 15.7124C29.5002 16.0446 29.2887 16.3338 29.0101 16.5802C28.7316 16.8213 28.3861 17.0114 27.9736 17.1507C27.5665 17.2846 27.0978 17.3516 26.5675 17.3516C26.2836 17.3516 26.005 17.3248 25.7318 17.2712C25.464 17.223 25.2042 17.1534 24.9525 17.0623C24.706 16.9713 24.4757 16.8641 24.2614 16.7409C24.0525 16.6177 23.8677 16.4838 23.707 16.3392L24.165 15.5839C24.2239 15.4928 24.2936 15.4232 24.3739 15.375C24.4543 15.3268 24.5561 15.3027 24.6793 15.3027C24.8025 15.3027 24.9176 15.3375 25.0248 15.4071C25.1373 15.4768 25.2658 15.5517 25.4104 15.6321C25.5551 15.7124 25.7238 15.7874 25.9166 15.8571C26.1148 15.9267 26.3639 15.9615 26.6639 15.9615C26.8996 15.9615 27.1005 15.9347 27.2665 15.8812C27.4379 15.8223 27.5772 15.7473 27.6843 15.6562C27.7968 15.5651 27.8772 15.4607 27.9254 15.3428C27.979 15.2196 28.0057 15.0938 28.0057 14.9652C28.0057 14.7724 27.9468 14.6143 27.829 14.4911C27.7165 14.3679 27.5638 14.2608 27.371 14.1697C27.1835 14.0787 26.9665 13.9983 26.7201 13.9287C26.4791 13.8537 26.23 13.7733 25.9729 13.6876C25.7211 13.6019 25.472 13.5028 25.2256 13.3903C24.9846 13.2725 24.7676 13.1252 24.5748 12.9484C24.3873 12.7716 24.2347 12.5547 24.1168 12.2976C24.0043 12.0405 23.9481 11.7298 23.9481 11.3655C23.9481 11.0281 24.015 10.7067 24.149 10.4013C24.2829 10.096 24.4784 9.83085 24.7355 9.60587C24.998 9.37554 25.3221 9.19341 25.7077 9.0595C26.0988 8.92022 26.5487 8.85059 27.0576 8.85059C27.6254 8.85059 28.1423 8.94433 28.6084 9.13181C29.0744 9.31929 29.4627 9.5657 29.7734 9.87103L29.3235 10.5861Z" fill="#FC000D"/>
</g>
</g>
</g>
</svg>
