<svg width="34" height="37" viewBox="0 0 34 37" fill="none" xmlns="http://www.w3.org/2000/svg">
<g id="Logomark">
<g id="Group 57">
<g id="Vector">
<path d="M26.9534 8.6525L0.203588 33.8792C-0.0889234 34.155 -0.0629116 34.5986 0.260233 34.845C0.523987 35.0462 0.906579 35.0521 1.1773 34.8591L8.72636 29.4779C8.96153 29.3102 9.23623 29.1944 9.52897 29.1393L17.937 27.5583C18.5012 27.4523 18.984 27.1234 19.2543 26.6611L29.0336 9.93652C29.2272 9.60541 29.2263 9.20821 29.0312 8.87755C28.7972 8.48116 28.326 8.24943 27.8331 8.28844L27.7836 8.29236C27.468 8.31734 27.1731 8.44526 26.9534 8.6525Z" fill="#FC000D"/>
<path d="M9.73357 14.698C9.31441 14.9905 9.04508 15.4261 8.98802 15.9038L8.31492 21.5379C8.24549 22.119 8.77787 22.6133 9.41861 22.5626C9.65894 22.5436 9.88401 22.4478 10.0539 22.2922L32.2979 1.91362C32.5503 1.68243 32.6777 1.36188 32.6463 1.03731C32.5987 0.544634 32.1974 0.140124 31.6631 0.0461754L31.5319 0.0231044C31.1398 -0.0458431 30.7342 0.0411667 30.4176 0.262115L9.73357 14.698Z" fill="#FC000D"/>
</g>
</g>
</g>
</svg>
